<svg width="26" height="26" viewBox="0 0 26 26" fill="none" xmlns="http://www.w3.org/2000/svg">
<g id="icono_bodegaicono_ecosistema" clip-path="url(#clip0_5_414)">
<g id="Layer 2">
<g id="Layer 1">
<path id="Vector" d="M13 26C20.1797 26 26 20.1797 26 13C26 5.8203 20.1797 0 13 0C5.8203 0 0 5.8203 0 13C0 20.1797 5.8203 26 13 26Z" fill="#3DAE2B"/>
<path id="Vector_2" d="M13.2539 12.2891L18.7891 18.8398C18.7891 18.8398 19.5508 19.5 19.5508 18.332V16.3008C19.6015 15.506 19.6015 14.7088 19.5508 13.9141C19.4079 13.0487 19.0597 12.2303 18.5352 11.5273C18.048 10.7194 17.4102 10.0125 16.6563 9.44531C16.6563 9.44531 15.9453 9.03906 15.2344 10.1563L13.457 12.2891" fill="#FFDB00"/>
<path id="Vector_3" d="M7.36328 18.5859L7.87109 18.0273C8.27734 17.4688 8.73437 16.9609 9.14062 16.4531C9.54687 15.9453 10.1562 15.2344 10.8672 14.4219L12.6953 12.2891L14.6758 10.1562C15.082 9.69922 15.6914 8.83594 16.4531 9.19141C17.2148 9.54687 17.5703 10.207 17.6719 10.207C17.3687 9.83529 17.0467 9.47935 16.707 9.14062L14.3203 6.34766L14.0156 5.99219C13.9018 5.84464 13.7556 5.72518 13.5883 5.64298C13.421 5.56078 13.2371 5.51804 13.0508 5.51804C12.8644 5.51804 12.6805 5.56078 12.5132 5.64298C12.346 5.72518 12.1998 5.84464 12.0859 5.99219C11.0195 7.05859 8.48046 10.2578 8.48046 10.2578C7.67825 11.2663 7.01237 12.3762 6.5 13.5586C6.44873 14.3025 6.44873 15.0491 6.5 15.793C6.5 16.5547 6.5 17.3164 6.5 18.1289C6.5 18.9414 6.85547 19.3477 7.36328 18.7383" fill="#E10E18"/>
<path id="Vector_4" d="M19.6016 5.89062C19.6019 5.96181 19.5873 6.03227 19.5587 6.09744C19.5301 6.16261 19.488 6.22104 19.4354 6.26892C19.3827 6.31681 19.3205 6.35308 19.253 6.37539C19.1854 6.3977 19.1138 6.40556 19.043 6.39844C18.9743 6.4066 18.9047 6.39909 18.8394 6.37645C18.7741 6.35382 18.7147 6.31666 18.6658 6.26777C18.617 6.21889 18.5798 6.15954 18.5572 6.09422C18.5345 6.02889 18.527 5.95928 18.5352 5.89062C18.5281 5.8198 18.5359 5.74826 18.5582 5.68067C18.5805 5.61307 18.6168 5.55092 18.6647 5.49824C18.7126 5.44557 18.771 5.40356 18.8362 5.37492C18.9013 5.34629 18.9718 5.33167 19.043 5.33203C19.1911 5.33203 19.3332 5.39088 19.438 5.49564C19.5427 5.6004 19.6016 5.74248 19.6016 5.89062ZM18.6367 5.89062C18.6367 5.94397 18.6473 5.9968 18.6677 6.04609C18.6881 6.09538 18.718 6.14016 18.7557 6.17789C18.7935 6.21561 18.8382 6.24553 18.8875 6.26595C18.9368 6.28637 18.9896 6.29687 19.043 6.29687C19.0983 6.30555 19.1549 6.30103 19.2082 6.28368C19.2614 6.26634 19.3098 6.23665 19.3494 6.19705C19.389 6.15745 19.4187 6.10905 19.4361 6.0558C19.4534 6.00255 19.4579 5.94595 19.4492 5.89062C19.4579 5.83529 19.4534 5.7787 19.4361 5.72545C19.4187 5.6722 19.389 5.6238 19.3494 5.5842C19.3098 5.54459 19.2614 5.51491 19.2082 5.49756C19.1549 5.48022 19.0983 5.4757 19.043 5.48437C18.9352 5.48437 18.8319 5.52718 18.7557 5.60336C18.6795 5.67955 18.6367 5.78288 18.6367 5.89062ZM18.9922 6.14453V5.63672H19.3985L18.9922 6.14453Z" fill="white"/>
</g>
</g>
</g>
<defs>
<clipPath id="clip0_5_414">
<rect width="26" height="26" fill="white"/>
</clipPath>
</defs>
</svg>
