<svg width="34" height="26" viewBox="0 0 34 26" fill="none" xmlns="http://www.w3.org/2000/svg">
<g id="Logo_de_Cherdraui" clip-path="url(#clip0_5_440)">
<path id="BLUE_SHAPE" d="M0 20.2175V4.73666C0 2.4261 1.94088 0 5.00238 0H29.1594C31.6432 0 33.9538 2.10262 34.0116 4.78288V20.1828C34.0116 22.2277 32.6021 25.2314 28.963 25.2314H4.84064C2.74958 25.2314 0 23.5447 0 20.2175Z" fill="#0D47A1"/>
<path id="ORANGE_SHAPE" d="M1.21307 19.5474V20.229C1.21307 22.8862 3.37345 24.0184 4.93309 24.0184H28.8013C31.4584 24.0184 32.7639 22.1121 32.7639 20.1944V19.559H1.21307V19.5474Z" fill="#F57C00"/>
<path id="WHITE_SHAPE" d="M32.7754 18.3344V4.75977C32.7754 2.78423 30.9385 1.17839 29.1363 1.17839H4.82909C2.84201 1.17839 1.22461 2.92287 1.22461 4.8984V18.3228H32.7754V18.3344Z" fill="white"/>
<g id="CUESTA_MENOS">
<path id="Vector" d="M5.49912 21.9966L6.20385 22.0775C6.16919 22.2277 6.09987 22.3548 6.019 22.4587C5.92658 22.5627 5.8226 22.6436 5.68397 22.7013C5.54533 22.7591 5.37204 22.7938 5.16409 22.7938C4.95614 22.7938 4.7944 22.7707 4.65577 22.736C4.51713 22.7013 4.4016 22.632 4.30918 22.5512C4.21676 22.4703 4.13589 22.3663 4.07812 22.2508C4.02036 22.1353 3.99725 21.9851 3.99725 21.8002C3.99725 21.6038 4.03191 21.4421 4.10123 21.3034C4.14744 21.211 4.21676 21.1186 4.30918 21.0493C4.39005 20.9684 4.48247 20.9222 4.5749 20.876C4.71353 20.8182 4.89838 20.7836 5.12943 20.7836C5.44136 20.7836 5.68397 20.8413 5.84571 20.9453C6.00745 21.0608 6.12298 21.2226 6.19229 21.4305L5.49912 21.523C5.47602 21.4421 5.44136 21.3728 5.38359 21.3381C5.32583 21.2919 5.24496 21.2803 5.15254 21.2803C5.02546 21.2803 4.93303 21.3266 4.85216 21.4074C4.77129 21.4998 4.73664 21.6269 4.73664 21.8002C4.73664 21.962 4.77129 22.0775 4.85216 22.1584C4.92148 22.2392 5.02546 22.2854 5.14098 22.2854C5.23341 22.2854 5.31428 22.2623 5.38359 22.2161C5.41825 22.1699 5.46446 22.089 5.49912 21.9966Z" fill="white"/>
<path id="Vector_2" d="M8.36422 22.736H7.6826V22.4241C7.57862 22.5511 7.47465 22.6436 7.37067 22.7013C7.2667 22.7591 7.13961 22.7822 6.98943 22.7822C6.78148 22.7822 6.63129 22.7244 6.51576 22.5974C6.40023 22.4818 6.34247 22.2854 6.34247 22.0428V20.8182H7.08185V21.8695C7.08185 21.9851 7.10496 22.0775 7.15117 22.1237C7.19738 22.1699 7.25514 22.2046 7.33601 22.2046C7.42843 22.2046 7.49775 22.1699 7.55552 22.1006C7.61328 22.0313 7.63639 21.9157 7.63639 21.7424V20.8182H8.36422V22.736Z" fill="white"/>
<path id="Vector_3" d="M9.27692 21.6154C9.28847 21.4998 9.32313 21.419 9.35779 21.3612C9.42711 21.2688 9.51953 21.2226 9.63506 21.2226C9.73903 21.2226 9.8199 21.2572 9.87767 21.315C9.93543 21.3728 9.98164 21.4767 9.99319 21.6154H9.27692ZM10.7557 21.8811C10.7557 21.6269 10.7095 21.419 10.6286 21.2688C10.5477 21.1071 10.4206 20.9915 10.2705 20.9107C10.1087 20.8298 9.88922 20.7836 9.6235 20.7836C9.28847 20.7836 9.02276 20.876 8.82636 21.0608C8.62996 21.2457 8.53754 21.4883 8.53754 21.7887C8.53754 21.9966 8.58375 22.1815 8.67617 22.3432C8.76859 22.5049 8.89567 22.6089 9.03431 22.6782C9.1845 22.7476 9.38089 22.7822 9.63506 22.7822C9.92388 22.7822 10.1549 22.736 10.3051 22.6551C10.4669 22.5743 10.5939 22.4356 10.7095 22.2392L9.98164 22.1699C9.93543 22.2277 9.88922 22.2739 9.85456 22.297C9.78524 22.3317 9.71593 22.3548 9.64661 22.3548C9.53108 22.3548 9.43866 22.3085 9.36934 22.2277C9.32313 22.1699 9.28847 22.0775 9.27692 21.962H10.7557V21.8811Z" fill="white"/>
<path id="Vector_4" d="M10.7672 22.2046L11.495 22.1352C11.5297 22.2161 11.5644 22.2854 11.6221 22.3201C11.6799 22.3547 11.7492 22.3778 11.8416 22.3778C11.9456 22.3778 12.0149 22.3547 12.0727 22.3201C12.1189 22.2854 12.1304 22.2508 12.1304 22.2046C12.1304 22.1468 12.1073 22.1121 12.0496 22.0775C12.0149 22.0544 11.8994 22.0313 11.7377 21.9966C11.4835 21.9504 11.3102 21.9157 11.2062 21.8695C11.1022 21.8349 11.0214 21.7656 10.9521 21.6731C10.8827 21.5807 10.8481 21.4767 10.8481 21.3612C10.8481 21.2341 10.8827 21.1301 10.9636 21.0377C11.0329 20.9453 11.1369 20.876 11.264 20.8298C11.3911 20.7836 11.5644 20.7605 11.7839 20.7605C12.0149 20.7605 12.1767 20.7836 12.2922 20.8182C12.3962 20.8529 12.4886 20.9106 12.5695 20.98C12.6388 21.0493 12.7081 21.1532 12.7543 21.2803L12.0496 21.3496C12.0265 21.2919 12.0034 21.2457 11.9572 21.211C11.8994 21.1764 11.8301 21.1532 11.7492 21.1532C11.6683 21.1532 11.6106 21.1648 11.5644 21.1995C11.5297 21.2341 11.5066 21.2688 11.5066 21.3034C11.5066 21.3496 11.5297 21.3843 11.5759 21.4074C11.6221 21.4305 11.7261 21.4536 11.8878 21.4767C12.1304 21.4998 12.3153 21.546 12.4308 21.5923C12.5463 21.6385 12.6388 21.7078 12.7081 21.8002C12.7659 21.8926 12.8005 21.9966 12.8005 22.1006C12.8005 22.2161 12.7659 22.3201 12.6965 22.4241C12.6272 22.528 12.5232 22.6089 12.3846 22.6782C12.246 22.736 12.0496 22.7706 11.7954 22.7706C11.4488 22.7706 11.1947 22.7244 11.0445 22.6205C10.9058 22.5396 10.8134 22.3894 10.7672 22.2046Z" fill="white"/>
<path id="Vector_5" d="M13.8518 20.0904V20.8182H14.2562V21.3497H13.8518V22.0313C13.8518 22.1121 13.8634 22.1699 13.8749 22.193C13.898 22.2392 13.9443 22.2508 14.002 22.2508C14.0598 22.2508 14.1291 22.2392 14.2331 22.2046L14.2908 22.7129C14.106 22.7475 13.9443 22.7707 13.7825 22.7707C13.5977 22.7707 13.459 22.7475 13.3782 22.7013C13.2857 22.6551 13.228 22.5858 13.1818 22.4934C13.1356 22.401 13.124 22.2392 13.124 22.0313V21.3612H12.8467V20.8298H13.124V20.4832L13.8518 20.0904Z" fill="white"/>
<path id="Vector_6" d="M15.7234 21.9504C15.7234 22.0428 15.7118 22.1121 15.6772 22.1699C15.6425 22.2277 15.5963 22.2739 15.527 22.3201C15.4577 22.3548 15.3768 22.3779 15.2959 22.3779C15.2151 22.3779 15.1573 22.3548 15.1226 22.3201C15.088 22.2854 15.0649 22.2392 15.0649 22.1815C15.0649 22.1353 15.088 22.089 15.1226 22.0428C15.1573 22.0082 15.2613 21.962 15.3999 21.9273C15.5039 21.9042 15.6078 21.8695 15.7118 21.8349V21.9504H15.7234ZM15.2035 21.2803C15.2613 21.2457 15.3537 21.2226 15.4692 21.2226C15.5616 21.2226 15.631 21.2457 15.6656 21.2803C15.7003 21.315 15.7234 21.3843 15.7234 21.4652C15.631 21.4998 15.5501 21.5345 15.4692 21.5576C15.3883 21.5807 15.2035 21.6154 14.9378 21.6731C14.7067 21.7194 14.5565 21.7887 14.4641 21.8811C14.3832 21.9735 14.337 22.1006 14.337 22.2392C14.337 22.3894 14.3948 22.528 14.5103 22.632C14.6259 22.736 14.7992 22.7938 15.0302 22.7938C15.2035 22.7938 15.3537 22.7707 15.4808 22.7129C15.5732 22.6782 15.6656 22.6089 15.7696 22.5165C15.7811 22.5743 15.7811 22.6089 15.7927 22.6436C15.8042 22.6667 15.8158 22.7013 15.8505 22.7591H16.5436C16.509 22.6782 16.4859 22.6205 16.4743 22.5627C16.4628 22.5165 16.4628 22.4356 16.4628 22.3548V21.4883C16.4628 21.3959 16.4397 21.3034 16.405 21.1995C16.3703 21.0955 16.3241 21.0262 16.2548 20.9684C16.1624 20.8875 16.0584 20.8413 15.9198 20.8182C15.7811 20.7951 15.6078 20.7836 15.3883 20.7836C15.2497 20.7836 15.1226 20.7951 15.0071 20.8182C14.8916 20.8413 14.7991 20.8644 14.7298 20.9107C14.6374 20.9569 14.5681 21.0262 14.5103 21.0955C14.4641 21.1648 14.4179 21.2572 14.3948 21.3843L15.0995 21.4652C15.1226 21.3612 15.1573 21.3034 15.2035 21.2803Z" fill="white"/>
<path id="Vector_7" d="M17.7451 20.8298H18.4383V21.107C18.5423 20.9915 18.6347 20.9106 18.7387 20.8644C18.8426 20.8182 18.9582 20.7951 19.1084 20.7951C19.2585 20.7951 19.3856 20.8182 19.478 20.876C19.5705 20.9338 19.6398 21.0146 19.6975 21.1186C19.8131 20.9915 19.917 20.9106 20.0095 20.8644C20.1019 20.8182 20.2174 20.7951 20.3561 20.7951C20.564 20.7951 20.7257 20.8529 20.8413 20.98C20.9568 21.107 21.0146 21.2919 21.0146 21.5576V22.7591H20.2752V21.6616C20.2752 21.5692 20.2636 21.5114 20.229 21.4652C20.1828 21.3959 20.1134 21.3612 20.0441 21.3612C19.9633 21.3612 19.8824 21.3959 19.8362 21.4536C19.7784 21.5114 19.7553 21.6154 19.7553 21.754V22.7475H19.0159V21.6962C19.0159 21.6154 19.0159 21.5576 19.0044 21.5229C18.9928 21.4767 18.9582 21.4305 18.9235 21.4074C18.8888 21.3728 18.8426 21.3612 18.7849 21.3612C18.704 21.3612 18.6347 21.3959 18.5769 21.4536C18.5192 21.5229 18.4961 21.6269 18.4961 21.7656V22.7475H17.7567V20.8298H17.7451Z" fill="white"/>
<path id="Vector_8" d="M21.9041 21.6154C21.9157 21.4998 21.9388 21.419 21.985 21.3612C22.0543 21.2688 22.1467 21.2226 22.2623 21.2226C22.3662 21.2226 22.4471 21.2572 22.5049 21.315C22.5626 21.3728 22.6089 21.4767 22.6204 21.6154H21.9041ZM23.3713 21.8811C23.3713 21.6269 23.3251 21.419 23.2443 21.2688C23.1634 21.1071 23.0363 20.9915 22.8861 20.9107C22.7244 20.8298 22.5049 20.7836 22.2392 20.7836C21.9041 20.7836 21.6384 20.876 21.442 21.0608C21.2456 21.2457 21.1532 21.4883 21.1532 21.7887C21.1532 21.9966 21.1994 22.1815 21.2918 22.3432C21.3843 22.5049 21.5113 22.6089 21.65 22.6782C21.8002 22.7476 21.9966 22.7822 22.2507 22.7822C22.5395 22.7822 22.7706 22.736 22.9208 22.6551C23.0825 22.5743 23.2096 22.4356 23.3251 22.2392L22.5973 22.1699C22.5511 22.2277 22.5049 22.2739 22.4702 22.297C22.4009 22.3317 22.3316 22.3548 22.2623 22.3548C22.1467 22.3548 22.0543 22.3085 21.985 22.2277C21.9388 22.1699 21.9041 22.0775 21.8926 21.962H23.3713V21.8811Z" fill="white"/>
<path id="Vector_9" d="M23.5215 20.8298H24.2032V21.1417C24.3071 21.0146 24.4111 20.9222 24.5151 20.8644C24.6191 20.8067 24.7461 20.7836 24.8963 20.7836C25.1043 20.7836 25.266 20.8413 25.3816 20.9684C25.4971 21.0839 25.5548 21.2803 25.5548 21.523V22.736H24.8155V21.6847C24.8155 21.5692 24.7924 21.4767 24.7461 21.4305C24.6999 21.3843 24.6422 21.3612 24.5613 21.3612C24.4689 21.3612 24.3996 21.3959 24.3418 21.4652C24.284 21.5345 24.2609 21.65 24.2609 21.8233V22.7476H23.5331V20.8298H23.5215Z" fill="white"/>
<path id="Vector_10" d="M26.5484 21.4074C26.6177 21.3266 26.7102 21.2803 26.8141 21.2803C26.9181 21.2803 26.999 21.3266 27.0683 21.4074C27.1376 21.4883 27.1723 21.6154 27.1723 21.7771C27.1723 21.9504 27.1376 22.089 27.0683 22.1699C26.999 22.2508 26.9181 22.2854 26.8141 22.2854C26.7102 22.2854 26.6177 22.2392 26.56 22.1584C26.4906 22.0775 26.456 21.9504 26.456 21.7771C26.4444 21.6154 26.4791 21.4883 26.5484 21.4074ZM26.0632 22.5512C26.248 22.7013 26.5022 22.7822 26.8141 22.7822C27.1607 22.7822 27.4264 22.6898 27.6228 22.5049C27.8192 22.3201 27.9116 22.0775 27.9116 21.7771C27.9116 21.5114 27.8308 21.2919 27.6806 21.1186C27.4842 20.8991 27.1954 20.7836 26.8141 20.7836C26.4791 20.7836 26.2134 20.876 26.017 21.0724C25.8206 21.2572 25.7166 21.4998 25.7166 21.8002C25.7051 22.1006 25.8206 22.3548 26.0632 22.5512Z" fill="white"/>
<path id="Vector_11" d="M27.9463 22.2046L28.6741 22.1352C28.7088 22.2161 28.7434 22.2854 28.8012 22.3201C28.859 22.3547 28.9283 22.3778 29.0207 22.3778C29.1247 22.3778 29.194 22.3547 29.2518 22.3201C29.298 22.2854 29.3095 22.2508 29.3095 22.2046C29.3095 22.1468 29.2864 22.1121 29.2287 22.0775C29.194 22.0544 29.0785 22.0313 28.9167 21.9966C28.6626 21.9504 28.4893 21.9157 28.3853 21.8695C28.2813 21.8349 28.2005 21.7656 28.1311 21.6731C28.0618 21.5807 28.0272 21.4767 28.0272 21.3612C28.0272 21.2341 28.0618 21.1301 28.1427 21.0377C28.212 20.9453 28.316 20.876 28.4431 20.8298C28.5701 20.7836 28.7434 20.7605 28.9629 20.7605C29.194 20.7605 29.3557 20.7836 29.4713 20.8182C29.5752 20.8529 29.6677 20.9106 29.7485 20.98C29.8178 21.0493 29.8872 21.1532 29.9334 21.2803L29.2287 21.3496C29.2055 21.2919 29.1824 21.2457 29.1362 21.211C29.0785 21.1764 29.0092 21.1532 28.9283 21.1532C28.8474 21.1532 28.7896 21.1648 28.7434 21.1995C28.7088 21.2341 28.6857 21.2688 28.6857 21.3034C28.6857 21.3496 28.7088 21.3843 28.755 21.4074C28.8012 21.4305 28.9052 21.4536 29.0669 21.4767C29.3095 21.4998 29.4944 21.546 29.6099 21.5923C29.7254 21.6385 29.8179 21.7078 29.8872 21.8002C29.9449 21.8926 29.9796 21.9966 29.9796 22.1006C29.9796 22.2161 29.9449 22.3201 29.8756 22.4241C29.8063 22.528 29.7023 22.6089 29.5637 22.6782C29.4251 22.736 29.2287 22.7706 28.9745 22.7706C28.6279 22.7706 28.3737 22.7244 28.2236 22.6205C28.0849 22.5396 27.9809 22.3894 27.9463 22.2046Z" fill="white"/>
</g>
<g id="CHEDRAUI">
<path id="Vector_12" d="M6.71221 17.0982C6.71221 17.0982 4.45941 17.0982 4.33232 17.0982C4.00885 17.0867 3.76624 16.9018 3.76624 16.5206C3.76624 16.4281 3.76624 15.7696 3.76624 15.6079C3.76624 15.3191 3.98574 15.088 4.35543 15.088C4.48251 15.088 6.71221 15.088 6.71221 15.088V15.5848C6.71221 15.5848 4.35543 15.5848 4.32077 15.5848C4.25145 15.5848 4.25145 15.631 4.25145 15.6772C4.25145 15.7234 4.25145 16.509 4.25145 16.5437C4.25145 16.5899 4.27456 16.6014 4.32077 16.6014C4.36698 16.6014 6.70066 16.6014 6.70066 16.6014V17.0982H6.71221Z" fill="#0D47A1"/>
<path id="Vector_13" d="M9.90082 17.0982V16.3357H7.92528V17.0982H7.44006V15.088H7.92528V15.8505H9.90082V15.088H10.3976V17.0982H9.90082Z" fill="#0D47A1"/>
<path id="Vector_14" d="M14.1176 16.6014H11.6453V16.3473H14.1176V15.8505H11.6453V15.5848H14.1176V15.088H11.1485V17.0982H14.1176V16.6014Z" fill="#0D47A1"/>
<path id="Vector_15" d="M17.2368 15.088C17.0289 15.088 14.8569 15.088 14.8569 15.088V17.0982C14.8569 17.0982 17.1444 17.0982 17.3061 17.0982C17.5719 17.0982 17.8376 16.8787 17.8376 16.6476C17.8376 16.4628 17.8376 15.8158 17.8376 15.6079C17.826 15.3075 17.5256 15.088 17.2368 15.088ZM17.3292 16.6014H15.3422V15.5848H17.3292V16.6014Z" fill="#0D47A1"/>
<path id="Vector_16" d="M21.5692 15.5848C21.5576 15.2844 21.2919 15.088 21.0493 15.088C20.9222 15.088 18.5654 15.088 18.5654 15.088V17.0982H19.0506V16.509C19.0506 16.509 20.8991 16.509 20.9684 16.509C21.0377 16.509 21.0608 16.5437 21.0608 16.613C21.0608 16.7054 21.0608 17.0867 21.0608 17.0867H21.5576C21.5576 17.0867 21.5576 16.5899 21.5576 16.4975C21.5576 16.3819 21.4999 16.2895 21.4421 16.2433C21.4767 16.2086 21.5576 16.1278 21.5576 16.0353C21.5692 15.9545 21.5692 15.6657 21.5692 15.5848ZM21.0608 16.0238H19.0391V15.5848H21.0608V16.0238Z" fill="#0D47A1"/>
<path id="Vector_17" d="M24.1917 15.0996H23.4407L21.9273 17.0982H22.5396L22.8515 16.7054H24.7809L25.0928 17.0982H25.7051L24.1917 15.0996ZM23.2212 16.2202L23.6833 15.5848H23.9375L24.3996 16.2202H23.2212Z" fill="#0D47A1"/>
<path id="Vector_18" d="M29.7485 17.0982V15.088H30.2338V17.0982H29.7485Z" fill="#0D47A1"/>
<path id="Vector_19" d="M26.56 15.088V16.6014H28.5817V15.088H29.0785C29.0785 15.088 29.0785 16.4281 29.0785 16.6014C29.0785 16.8209 28.9283 17.0982 28.5471 17.0982C28.3507 17.0982 26.7333 17.0982 26.56 17.0982C26.3174 17.0982 26.0517 16.8325 26.0632 16.5668C26.0632 16.4975 26.0632 15.088 26.0632 15.088H26.56Z" fill="#0D47A1"/>
</g>
<g id="FAMILY">
<path id="Vector_20" d="M14.0714 5.84574H15.5848L16.7978 7.04724V8.58376L14.0714 5.84574Z" fill="#F57C00"/>
<path id="Vector_21" d="M14.0251 6.25008V10.1549H16.1047V8.31804L14.0251 6.25008Z" fill="#F57C00"/>
<path id="Vector_22" d="M17.1097 6.94326H18.5423L21.2572 9.70439H19.8131L17.1097 6.94326Z" fill="#F57C00"/>
<path id="Vector_23" d="M10.5708 8.93034H12.0727L13.5514 10.4784L12.8236 11.2409L10.5708 8.93034Z" fill="#F57C00"/>
<path id="Vector_24" d="M17.0751 7.33605L18.9698 9.28848V11.0445H15.7003L17.0751 9.65817V7.33605Z" fill="#F57C00"/>
<path id="Vector_25" d="M10.5477 9.28848V11.9456H12.1305V10.9752L10.5477 9.28848Z" fill="#F57C00"/>
<path id="Vector_26" d="M10.5131 12.2113H11.8301L9.57729 14.3833H8.29492L10.5131 12.2113Z" fill="#F57C00"/>
<path id="Vector_27" d="M14.002 10.49H15.8158L11.7954 14.3833H10.0278L14.002 10.49Z" fill="#F57C00"/>
<path id="Vector_28" d="M13.9096 14.3833H15.4577L18.0109 11.9225L20.4485 14.3833H21.9388L18.9697 11.3218H17.0751L13.9096 14.3833Z" fill="#F57C00"/>
<path id="Vector_29" d="M21.2457 10.2474H21.7887C21.7887 10.2474 21.9619 11.0676 22.0082 11.264C22.0544 11.4604 22.089 11.6915 22.4818 11.6915C22.7937 11.6915 25.3123 11.6915 25.3123 11.6915V13.3089C25.3123 13.3089 23.7757 13.3089 23.0017 13.3089C22.3316 13.3089 21.7887 12.893 21.6385 12.0843C21.5345 11.5528 21.2457 10.2474 21.2457 10.2474Z" fill="#F57C00"/>
<path id="Vector_30" d="M18.0108 6.79307C18.6617 6.79307 19.1892 6.26549 19.1892 5.61468C19.1892 4.96388 18.6617 4.43629 18.0108 4.43629C17.36 4.43629 16.8325 4.96388 16.8325 5.61468C16.8325 6.26549 17.36 6.79307 18.0108 6.79307Z" fill="#F57C00"/>
<path id="Vector_31" d="M11.3911 8.73395C12.0036 8.73395 12.5001 8.2374 12.5001 7.62487C12.5001 7.01235 12.0036 6.5158 11.3911 6.5158C10.7785 6.5158 10.282 7.01235 10.282 7.62487C10.282 8.2374 10.7785 8.73395 11.3911 8.73395Z" fill="#F57C00"/>
<path id="Vector_32" d="M20.5871 10.594C20.7849 10.594 20.9453 10.4336 20.9453 10.2358C20.9453 10.038 20.7849 9.87768 20.5871 9.87768C20.3893 9.87768 20.229 10.038 20.229 10.2358C20.229 10.4336 20.3893 10.594 20.5871 10.594Z" fill="#F57C00"/>
<path id="Vector_33" d="M22.8746 11.0676C23.3276 11.0676 23.6948 10.7004 23.6948 10.2474C23.6948 9.79436 23.3276 9.42712 22.8746 9.42712C22.4216 9.42712 22.0543 9.79436 22.0543 10.2474C22.0543 10.7004 22.4216 11.0676 22.8746 11.0676Z" fill="#F57C00"/>
<path id="Vector_34" d="M22.8977 14.4295C23.1465 14.4295 23.3483 14.2278 23.3483 13.9789C23.3483 13.7301 23.1465 13.5284 22.8977 13.5284C22.6489 13.5284 22.4471 13.7301 22.4471 13.9789C22.4471 14.2278 22.6489 14.4295 22.8977 14.4295Z" fill="#F57C00"/>
<path id="Vector_35" d="M24.7346 14.4295C24.9835 14.4295 25.1852 14.2278 25.1852 13.9789C25.1852 13.7301 24.9835 13.5284 24.7346 13.5284C24.4858 13.5284 24.2841 13.7301 24.2841 13.9789C24.2841 14.2278 24.4858 14.4295 24.7346 14.4295Z" fill="#F57C00"/>
<path id="Vector_36" d="M15.088 5.62623C15.7899 5.62623 16.3588 5.05727 16.3588 4.35542C16.3588 3.65357 15.7899 3.08461 15.088 3.08461C14.3862 3.08461 13.8172 3.65357 13.8172 4.35542C13.8172 5.05727 14.3862 5.62623 15.088 5.62623Z" fill="#F57C00"/>
</g>
</g>
<defs>
<clipPath id="clip0_5_440">
<rect width="34" height="25.2314" fill="white"/>
</clipPath>
</defs>
</svg>
